<mxfile host="app.diagrams.net" modified="2021-05-01T06:41:29.143Z" agent="5.0 (Windows NT 10.0; Win64; x64) AppleWebKit/537.36 (KHTML, like Gecko) Chrome/90.0.4430.93 Safari/537.36" etag="H7H1lwtaS3-nuNKHQEq8" version="14.6.9" type="github">
  <diagram id="XvvQ6aI2wRtfxO7UXdUl" name="Page-1">
    <mxGraphModel dx="898" dy="516" grid="1" gridSize="10" guides="1" tooltips="1" connect="1" arrows="1" fold="1" page="1" pageScale="1" pageWidth="1169" pageHeight="827" math="0" shadow="0">
      <root>
        <mxCell id="0" />
        <mxCell id="1" parent="0" />
        <mxCell id="qr2dL5itkg8mhw85MINi-3" value="" style="edgeStyle=orthogonalEdgeStyle;rounded=0;orthogonalLoop=1;jettySize=auto;html=1;" edge="1" parent="1" source="qr2dL5itkg8mhw85MINi-1" target="qr2dL5itkg8mhw85MINi-2">
          <mxGeometry relative="1" as="geometry" />
        </mxCell>
        <mxCell id="qr2dL5itkg8mhw85MINi-5" value="" style="edgeStyle=orthogonalEdgeStyle;rounded=0;orthogonalLoop=1;jettySize=auto;html=1;" edge="1" parent="1" source="qr2dL5itkg8mhw85MINi-1" target="qr2dL5itkg8mhw85MINi-4">
          <mxGeometry relative="1" as="geometry" />
        </mxCell>
        <mxCell id="qr2dL5itkg8mhw85MINi-1" value="你好" style="rounded=0;whiteSpace=wrap;html=1;comic=1;" vertex="1" parent="1">
          <mxGeometry x="350" y="100" width="120" height="40" as="geometry" />
        </mxCell>
        <mxCell id="qr2dL5itkg8mhw85MINi-2" value="" style="ellipse;whiteSpace=wrap;html=1;rounded=0;comic=1;" vertex="1" parent="1">
          <mxGeometry x="550" y="100" width="120" height="60" as="geometry" />
        </mxCell>
        <mxCell id="qr2dL5itkg8mhw85MINi-4" value="" style="shape=cylinder;whiteSpace=wrap;html=1;boundedLbl=1;backgroundOutline=1;rounded=0;comic=1;" vertex="1" parent="1">
          <mxGeometry x="380" y="200" width="60" height="80" as="geometry" />
        </mxCell>
        <mxCell id="qr2dL5itkg8mhw85MINi-6" value="这是什么" style="rounded=1;whiteSpace=wrap;html=1;strokeWidth=2;fillWeight=4;hachureGap=8;hachureAngle=45;fillColor=#1ba1e2;sketch=1;comic=1;" vertex="1" parent="1">
          <mxGeometry x="510" y="210" width="120" height="60" as="geometry" />
        </mxCell>
        <mxCell id="qr2dL5itkg8mhw85MINi-8" value="" style="rhombus;whiteSpace=wrap;html=1;strokeWidth=2;fillWeight=-1;hachureGap=8;fillStyle=cross-hatch;fillColor=#006600;sketch=1;comic=1;" vertex="1" parent="1">
          <mxGeometry x="240" y="300" width="120" height="60" as="geometry" />
        </mxCell>
      </root>
    </mxGraphModel>
  </diagram>
</mxfile>
